inDegrees=yes
name=ik_lifting_orientations
DataType=double
version=3
OpenSimVersion=4.5-2024-01-10-34fd6af
endheader
time	pelvis_tilt	pelvis_list	pelvis_rotation	pelvis_tx	pelvis_ty	pelvis_tz	hip_flexion_r	hip_adduction_r	hip_rotation_r	knee_angle_r	knee_angle_r_beta	ankle_angle_r	subtalar_angle_r	mtp_angle_r	hip_flexion_l	hip_adduction_l	hip_rotation_l	knee_angle_l	knee_angle_l_beta	ankle_angle_l	subtalar_angle_l	mtp_angle_l	lumbar_extension	lumbar_bending	lumbar_rotation	arm_flex_r	arm_add_r	arm_rot_r	elbow_flex_r	pro_sup_r	wrist_flex_r	wrist_dev_r	arm_flex_l	arm_add_l	arm_rot_l	elbow_flex_l	pro_sup_l	wrist_flex_l	wrist_dev_l
1.75	-0.8731604459113709	34.70509123056469	-96.59799058330803	0	0.9399999998679526	0	45.07426508005047	-10.03326061630939	0	60.07897580299672	1.048575938988297	-5.00578093819992	0	0	45.07426508005047	-10.03326061630939	0	60.07897580299672	1.048575938988297	-5.00578093819992	0	0	81.38529721626483	15.35439531892882	16.90312863598873	-33.90119670486641	5.65799638046015	-9.970235480772622	0.01307046474162092	1.064449634273306	0	0	0	-12.15419038060697	0	88.95799876531935	1.064449634273306	0	0
1.76	-0.5951970697615409	34.10224308675176	-96.69488568420532	0	0.9399999998679526	0	45.07422754531849	-10.03320200497359	0	60.07894447768297	1.048575392258433	-5.005767655198615	0	0	45.07422754531849	-10.03320200497359	0	60.07894447768297	1.048575392258433	-5.005767655198615	0	0	79.25858875220842	15.08238754908806	17.52761626851343	-31.8732207338668	4.745202263445267	-9.834719976322592	0.01370539057977125	1.06407501255624	0	0	0	-12.15492813076134	0	88.95836542314449	1.06407501255624	0	0
1.77	-0.4276222210380546	33.67589501083663	-96.79016326305189	0	0.9399999998679526	0	45.07419411250186	-10.03314976329945	0	60.07891661504652	1.048574905963688	-5.005755817516539	0	0	45.07419411250186	-10.03314976329945	0	60.07891661504652	1.048574905963688	-5.005755817516539	0	0	77.38818277672384	14.87680806969305	18.02531797049917	-29.80113237217245	3.617506181048459	-9.799059585869696	0.0143862084645227	1.063741477263731	0	0	0	-12.15558469890569	0	88.95869186797769	1.063741477263731	0	0
1.78	-0.2427644195826878	33.37133583927212	-96.8009280406585	0	0.9399999998679526	0	45.07416268030667	-10.03310068582435	0	60.07889042460801	1.048574448854304	-5.005744701416456	0	0	45.07416268030667	-10.03310068582435	0	60.07889042460801	1.048574448854304	-5.005744701416456	0	0	75.57982868999562	14.62367131525206	18.53469890750322	-27.78646309662005	2.348986790374669	-9.746029380996724	0.01512141029025309	1.063427892401841	0	0	0	-12.15620198686928	0	88.95899878649703	1.063427892401841	0	0
1.79	0.06702472188745019	32.64339535315237	-96.8985519090842	0	0.9399999998679526	0	45.07413209648336	-10.03305298633049	0	60.0788649371077	1.048574004013505	-5.005733902381357	0	0	45.07413209648336	-10.03305298633049	0	60.0788649371077	1.048574004013505	-5.005733902381357	0	0	73.33014611901817	14.32927517049948	19.21649577989431	-25.84899494339906	1.057402615436186	-9.779176669977231	0.01595413200420692	1.063122724912468	0	0	0	-12.15680276445198	0	88.95929746658588	1.063122724912468	0	0
1.8	0.2868153307158868	31.52060102026725	-96.84991782381039	0	0.9399999998679526	0	45.07408846515022	-10.03298496927364	0	60.07882859646688	1.048573369749671	-5.005718509560833	0	0	45.07408846515022	-10.03298496927364	0	60.07882859646688	1.048573369749671	-5.005718509560833	0	0	70.63513654712807	13.9298077665809	19.79563756384502	-23.90438943904094	-0.2709297491559313	-9.792830455218866	0.01719973926715829	1.062687412137406	0	0	0	-12.15765964960756	0	88.95972352526762	1.062687412137406	0	0
1.81	0.4364976549796395	30.28457383630248	-96.76252369597545	0	0.9399999998679526	0	45.07404498223769	-10.03291725974512	0	60.0787923840595	1.048572737723932	-5.005703194806073	0	0	45.07404498223769	-10.03291725974512	0	60.0787923840595	1.048572737723932	-5.005703194806073	0	0	67.81962214826082	13.4171933172447	20.24848201235123	-21.91361418864761	-1.575808773331151	-9.692738904422795	0.01866696078872026	1.062253546492636	0	0	0	-12.15851370521828	0	88.96014816758425	1.062253546492636	0	0
1.82	0.4986482145323145	29.09638191587555	-96.46976531798838	0	0.9399999998679526	0	45.07400778797379	-10.03285949931612	0	60.07876137150765	1.048572196452793	-5.005690141353131	0	0	45.07400778797379	-10.03285949931612	0	60.07876137150765	1.048572196452793	-5.005690141353131	0	0	65.09509612792681	12.77398601623408	20.51379230408506	-19.97183030564185	-2.777870431922873	-9.688694281000753	0.02052081158717824	1.061882210602513	0	0	0	-12.15924500673898	0	88.96051160943949	1.061882210602513	0	0
1.83	0.6236990029265992	28.04657488937838	-96.33785670106272	0	0.9399999998679526	0	45.07398640992066	-10.03282633579341	0	60.07874354384169	1.048571885301324	-5.005682649884039	0	0	45.07398640992066	-10.03282633579341	0	60.07874354384169	1.048571885301324	-5.005682649884039	0	0	62.75586183724047	12.10556849105533	20.69310117860145	-18.30977722188295	-3.966787605376591	-9.507697609006689	0.02353666273248762	1.061668748207504	0	0	0	-12.15966543378397	0	88.96072053395029	1.061668748207504	0	0
1.84	0.8047134066901968	26.92200781729457	-96.34367662912729	0	0.9399999998679526	0	45.07394903737075	-10.03276826993345	0	60.07871244055301	1.048571342446528	-5.005669532403439	0	0	45.07394903737075	-10.03276826993345	0	60.07871244055301	1.048571342446528	-5.005669532403439	0	0	60.4526273097003	11.46828231456025	21.02399017953816	-16.74519136017927	-5.055217460895245	-9.301443794125358	0.0276127755556514	1.061295833826384	0	0	0	-12.16039946011796	0	88.96108552073686	1.061295833826384	0	0
1.85	0.9381166111214111	25.87000528651391	-96.38489637033517	0	0.9399999998679526	0	45.0739223649278	-10.03272693899291	0	60.07869021128278	1.048570954472572	-5.005660202501877	0	0	45.0739223649278	-10.03272693899291	0	60.07869021128278	1.048570954472572	-5.005660202501877	0	0	58.0944096463889	10.92812527472774	21.2722054821931	-15.05860264750756	-6.195371543681265	-9.039396806065923	0.03438438996319261	1.061029519865913	0	0	0	-12.16092392552086	0	88.96134617326996	1.061029519865913	0	0
1.86	1.009041037022502	24.7541084013767	-96.29147451098933	0	0.9399999998679526	0	45.07389460838181	-10.0326839518221	0	60.07866708407087	1.048570550826577	-5.005650501916473	0	0	45.07389460838181	-10.0326839518221	0	60.07866708407087	1.048570550826577	-5.005650501916473	0	0	55.66685067901241	10.42555841718112	21.5586599373626	-13.50721044401359	-7.490342397244433	-8.986352995802831	0.04715878362028424	1.060752384225978	0	0	0	-12.16146968212076	0	88.96161741743036	1.060752384225978	0	0
1.87	1.116179044804438	23.50842362126433	-96.11123562861141	0	0.9399999998679526	0	45.0738688897622	-10.03264419844267	0	60.07864563534223	1.048570176475643	-5.005641536366944	0	0	45.0738688897622	-10.03264419844267	0	60.07864563534223	1.048570176475643	-5.005641536366944	0	0	53.09619356186679	9.691681976576138	21.70927260899848	-11.84569913930253	-8.683112704428897	-8.698838008070718	0.08105150125585765	1.060495485243537	0	0	0	-12.16197575911048	0	88.96186885513629	1.060495485243537	0	0
1.88	1.18703430780742	22.31999343383727	-95.69549608496401	0	0.9399999998679526	0	45.07384074659075	-10.03260070705167	0	60.07862217574387	1.04856976702841	-5.005631730291936	0	0	45.07384074659075	-10.03260070705167	0	60.07862217574387	1.04856976702841	-5.005631730291936	0	0	51.33364533740522	9.019752392500008	21.64945016932594	-11.13241960033029	-9.819103514071626	-8.613421861894791	0.3180088368174561	1.060214396781772	0	0	0	-12.16252942419446	0	88.96214396809009	1.060214396781772	0	0
1.89	0.6046578908503775	21.09722023694928	-94.64796595735966	0	0.9399999998679526	0	45.07376402285059	-10.03248238879046	0	60.07855826915969	1.048568651648102	-5.005605084152819	0	0	45.07376402285059	-10.03248238879046	0	60.07855826915969	1.048568651648102	-5.005605084152819	0	0	49.11820093504786	8.306445370940185	20.87611026797146	-10.82716420171146	-11.12877105508936	-8.723029798828117	2.111565378993245	1.059448131292637	0	0	0	-12.16403849355808	0	88.96289394395495	1.059448131292637	0	0
1.9	0.3459188076418501	20.02919343411575	-94.21417934332595	0	0.9399999998679526	0	45.07265492048392	-10.03134969776067	0	60.07738055681798	1.048548096690098	-5.005374227685464	0	0	45.07265492048392	-10.03134969776067	0	60.07738055681798	1.048548096690098	-5.005374227685464	0	0	46.99487499982212	7.801486011691004	20.57014163864241	-10.83376704513351	-12.42207002714063	-8.748721976338768	4.687870571250167	1.047183782159288	0	0	0	-12.19019323910366	0	88.97489759652211	1.047183782159288	0	0
1.91	0.106984822289602	19.13004727178812	-93.81168760257063	0	0.9399999998679526	0	45.07158210298611	-10.03027390169299	0	60.07624228923066	1.048528230172931	-5.005156262220654	0	0	45.07158210298611	-10.03027390169299	0	60.07624228923066	1.048528230172931	-5.005156262220654	0	0	45.1952164469841	7.412401877902584	20.32845170452972	-11.12495367910262	-13.74647034111761	-8.908417467498198	7.370751565803614	1.035283625986611	0	0	0	-12.21562457733241	0	88.98654479817696	1.035283625986611	0	0
1.92	-0.3064772091551449	18.41126625218003	-92.91227285460148	0	0.9399999998679526	0	45.07034451433112	-10.02907122324746	0	60.07492803024258	1.048505292026365	-5.004915288143975	0	0	45.07034451433112	-10.02907122324746	0	60.07492803024258	1.048505292026365	-5.004915288143975	0	0	43.44991945183591	6.877273687374791	19.67946475497183	-11.31670879152208	-15.07082183369229	-9.253151607247425	10.0843043183574	1.021488868030628	0	0	0	-12.24519869584311	0	89.0000463302263	1.021488868030628	0	0
1.93	-0.720058871183088	17.38033763932358	-92.02202702695551	0	0.9399999998679526	0	45.06906422613901	-10.02784996329359	0	60.0735706177364	1.048481600708824	-5.004672030359433	0	0	45.06906422613901	-10.02784996329359	0	60.0735706177364	1.048481600708824	-5.004672030359433	0	0	41.40033124766899	6.36080054802594	18.97619771682248	-11.49915809116676	-16.38468113346158	-9.60973820007354	12.83193268544655	1.007172351478167	0	0	0	-12.27595754643405	0	89.01405853087871	1.007172351478167	0	0
1.94	-1.108542522079749	16.34399820813627	-91.14853304409674	0	0.9399999998679526	0	45.06778814824128	-10.02666495336727	0	60.07221664125993	1.048457969361315	-5.00443801225802	0	0	45.06778814824128	-10.02666495336727	0	60.07221664125993	1.048457969361315	-5.00443801225802	0	0	39.33147648696442	5.86176704946894	18.32969932032692	-11.64281443406499	-17.60949409865096	-10.04038268649355	15.52604398878602	0.9928364053957379	0	0	0	-12.30685539317557	0	89.02808974902347	0.9928364053957379	0	0
1.95	-1.496948576331528	15.17482331036628	-90.14481348659905	0	0.9399999998679526	0	45.06643589635117	-10.02544204688766	0	60.07078125576296	1.048432917158358	-5.004198549012714	0	0	45.06643589635117	-10.02544204688766	0	60.07078125576296	1.048432917158358	-5.004198549012714	0	0	37.13436315984323	5.341303891967913	17.47778990962182	-11.90749839708719	-18.86801141755335	-10.37938905936816	18.41040509420889	0.977574921165434	0	0	0	-12.33985018277964	0	89.04302683283713	0.977574921165434	0	0
1.96	-1.690549466123172	14.28249263990865	-89.63534784100311	0	0.9399999998679526	0	45.06526352048387	-10.02440532354008	0	60.06953717610811	1.048411203872223	-5.003996898314726	0	0	45.06526352048387	-10.02440532354008	0	60.06953717610811	1.048411203872223	-5.003996898314726	0	0	35.30184295816944	4.998606257964054	17.04992238987788	-12.42975302575397	-20.14245857056389	-10.85151400866897	21.46101177819919	0.9642887758991249	0	0	0	-12.36865607945488	0	89.05603056650448	0.9642887758991249	0	0
